<svg height="512" viewBox="0 0 512 512" width="512" xmlns="http://www.w3.org/2000/svg"><g id="Filled_stroke_cut_Ex" data-name="Filled stroke cut Ex"><path d="m312 488h-268a20 20 0 0 1 -20-20v-12l32-344h224l24.213 109.787 7.787 234.213z" fill="#fac850"/><path d="m216 256v64h16v168h240v-168h16v-64z" fill="#9fdc6e"/><path d="m296 256v64h24v168h64v-168h24v-64z" fill="#fac850"/><circle cx="224" cy="168" fill="#fffffe" r="16"/><circle cx="112" cy="168" fill="#fffffe" r="16"/><path d="m112 192a24 24 0 1 1 24-24 24.027 24.027 0 0 1 -24 24zm0-32a8 8 0 1 0 8 8 8.009 8.009 0 0 0 -8-8z"/><g><g><path d="m488 159.039-19.685 31.719 11.18 35.193-34.915 14.508-12.146 35.112-36.784-8.267-30.881 21.63-24.582-27.859-37.809-.146-3.037-36.801-30.265-21.854 19.685-31.718-11.18-35.194 34.915-14.507 12.146-35.113 36.784 8.268 30.881-21.63 24.582 27.859 37.809.146 3.037 36.801z" fill="#fa5d3f"/><path d="m488 159.039-19.685 31.719 11.18 35.193-34.915 14.508-12.146 35.112-36.784-8.267-30.881 21.63-24.582-27.859-37.809-.146-3.037-36.801-30.265-21.854 19.685-31.718-11.18-35.194 34.915-14.507 12.146-35.113 36.784 8.268 30.881-21.63 24.582 27.859 37.809.146 3.037 36.801z" fill="none"/></g><path d="m320.1 176.425h124.451v16h-124.451z" transform="matrix(.707 -.707 .707 .707 -18.428 324.362)"/><circle cx="346.325" cy="148.425" fill="#fffefd" r="16"/><path d="m346.325 172.425a24 24 0 1 1 24-24 24.027 24.027 0 0 1 -24 24zm0-32a8 8 0 1 0 8 8 8.009 8.009 0 0 0 -8-8z"/><circle cx="418.325" cy="212.425" fill="#fffefd" r="16"/><path d="m418.325 236.425a24 24 0 1 1 24-24 24.027 24.027 0 0 1 -24 24zm0-32a8 8 0 1 0 8 8 8.009 8.009 0 0 0 -8-8z"/></g><path d="m488 248h-37.77l.661-1.911 31.6-13.13a8 8 0 0 0 4.554-9.81l-10.065-31.682 17.743-28.589a8 8 0 0 0 -2.114-10.7l-27.278-19.7-2.731-33.131a8 8 0 0 0 -7.942-7.342l-34.217-.132-22.211-25.166a8 8 0 0 0 -10.588-1.26l-27.985 19.6-33.336-7.492a8 8 0 0 0 -9.315 5.19l-10.971 31.717-17.109 7.109-.96-10.315a8 8 0 0 0 -7.966-7.256h-48v-40a48.055 48.055 0 0 0 -48-48h-32a48.055 48.055 0 0 0 -48 48v40h-48a8 8 0 0 0 -7.966 7.259l-5.209 56 15.931 1.482 4.535-48.741h40.709v25.371a24 24 0 1 0 16 0v-25.371h96v25.371a24 24 0 1 0 16 0v-25.371h40.709l.752 8.08a8 8 0 0 0 -3.58 9.325l10.065 31.682-17.746 28.589a8 8 0 0 0 2.114 10.7l27.278 19.7 1.648 19.924h-77.24a8 8 0 0 0 -8 8v64a8 8 0 0 0 8 8h8v152h-180a12.013 12.013 0 0 1 -12-12v-11.629l25.268-271.63-15.932-1.482-25.3 272q-.036.369-.036.741v12a28.032 28.032 0 0 0 28 28h428a8 8 0 0 0 8-8v-144h-16v136h-72v-152h96a8 8 0 0 0 8-8v-64a8 8 0 0 0 -8-8zm-376-72a8 8 0 1 1 8-8 8.009 8.009 0 0 1 -8 8zm112 0a8 8 0 1 1 8-8 8.009 8.009 0 0 1 -8 8zm-104-72v-40a32.036 32.036 0 0 1 32-32h32a32.036 32.036 0 0 1 32 32v40zm159.731 95.775 15.752-25.38a8 8 0 0 0 .828-6.641l-8.959-28.2 28.139-11.691a8 8 0 0 0 4.49-4.773l9.809-28.354 29.807 6.7a8 8 0 0 0 6.344-1.253l25.023-17.528 19.851 22.5a8 8 0 0 0 5.968 2.707l30.471.118 2.433 29.488a8 8 0 0 0 3.29 5.827l24.217 17.487-15.752 25.378a8 8 0 0 0 -.827 6.641l8.959 28.2-28.139 11.692a8 8 0 0 0 -4.491 4.772l-9.808 28.354-29.807-6.7a8 8 0 0 0 -6.344 1.253l-25.024 17.528-19.851-22.5a8 8 0 0 0 -5.967-2.707l-30.471-.117-2.433-29.488a8 8 0 0 0 -3.29-5.828zm-55.731 64.225h64v48h-64zm16 216v-152h72v152zm136 0h-48v-152h48zm-72-168v-43.444l32.489.125 22.211 25.167a8 8 0 0 0 10.589 1.259l27.985-19.6 2.731.614v35.879zm176 0h-64v-32.285l14.6 3.285a8 8 0 0 0 9.315-5.19l4.785-13.81h35.3z"/></g></svg>